2025-07-22 16:00:53,332 - INFO - Job ba2ed18e-baa8-4366-a179-1bc443b95ae5 initialized.
2025-07-22 16:00:53,345 - INFO - Original input file: Z:\landing_point\Video\Oppenheimer\Oppenheimer-SEG_MainFeature_t02.mkv
2025-07-22 16:00:53,345 - INFO - Final output file: Z:\landing_point\Video\Oppenheimer\Oppenheimer-SEG_MainFeature_t02_DV_P8.mkv
2025-07-22 16:00:53,346 - INFO - Local job staging directory: H:\staging\ba2ed18e-baa8-4366-a179-1bc443b95ae5
2025-07-22 16:00:53,347 - INFO - Disk space for Local Staging SSD (H:\staging):
2025-07-22 16:00:53,347 - INFO -   - Total: 3726.01 GB
2025-07-22 16:00:53,349 - INFO -   - Used: 2114.70 GB
2025-07-22 16:00:53,351 - INFO -   - Free: 1611.30 GB
2025-07-22 16:00:53,353 - INFO - === Entering transcode() for job ba2ed18e-baa8-4366-a179-1bc443b95ae5 ===
2025-07-22 16:00:53,353 - INFO - Job dict: {
  "id": "ba2ed18e-baa8-4366-a179-1bc443b95ae5",
  "input_path": "\"Z:\\landing_point\\Video\\Oppenheimer\\Oppenheimer-SEG_MainFeature_t02.mkv\"",
  "job_type": "standard",
  "status": "running",
  "worker_id": "CJBLANK",
  "output_path": null,
  "added_at": 1752956661.0266156,
  "retries": 1,
  "steps": {
    "copy_source": "pending",
    "get_metadata": "pending",
    "reencode_x265": "pending",
    "move_final": "pending"
  },
  "claimed_at": 1753221653.2161896
}
2025-07-22 16:00:53,363 - INFO - === Starting transcode pipeline for job ba2ed18e-baa8-4366-a179-1bc443b95ae5 ===
2025-07-22 16:00:53,364 - INFO - Job dict: {'id': 'ba2ed18e-baa8-4366-a179-1bc443b95ae5', 'input_path': '"Z:\\landing_point\\Video\\Oppenheimer\\Oppenheimer-SEG_MainFeature_t02.mkv"', 'job_type': 'standard', 'status': 'running', 'worker_id': 'CJBLANK', 'output_path': None, 'added_at': 1752956661.0266156, 'retries': 1, 'steps': {'copy_source': 'pending', 'get_metadata': 'pending', 'reencode_x265': 'pending', 'move_final': 'pending'}, 'claimed_at': 1753221653.2161896}
2025-07-22 16:00:53,365 - INFO - Starting step: copy_source - Copying source file locally
2025-07-22 16:00:53,377 - INFO - Copying source file locally: from Z:\landing_point\Video\Oppenheimer\Oppenheimer-SEG_MainFeature_t02.mkv to H:\staging\ba2ed18e-baa8-4366-a179-1bc443b95ae5\Oppenheimer-SEG_MainFeature_t02.mkv
2025-07-22 16:29:48,809 - INFO - Copy successful.
2025-07-22 16:29:49,268 - INFO - Starting step: get_metadata - Getting video metadata
2025-07-22 16:29:49,309 - INFO - Attempting to get video metadata from H:\staging\ba2ed18e-baa8-4366-a179-1bc443b95ae5\Oppenheimer-SEG_MainFeature_t02.mkv
2025-07-22 16:29:49,846 - INFO - Successfully got frame rate: 23.976 fps.
2025-07-22 16:29:49,952 - INFO - Successfully got frame count from tag 'NUMBER_OF_FRAMES-eng': 259473 frames.
2025-07-22 16:29:50,704 - INFO - Starting step: reencode_x265 - Re-encoding and Muxing
2025-07-22 16:29:50,706 - INFO - Executing ffmpeg command: ffmpeg -fflags +genpts -i "H:\staging\ba2ed18e-baa8-4366-a179-1bc443b95ae5\Oppenheimer-SEG_MainFeature_t02.mkv" -map 0 -c:v libx265 -preset medium -crf 18 -threads 10 -x265-params pools=10:no-sao=1:early-skip=1:rd=3:me=hex -c:a copy -c:s copy -y "H:\staging\ba2ed18e-baa8-4366-a179-1bc443b95ae5\Oppenheimer-SEG_MainFeature_t02_x265.mkv"
2025-07-22 16:29:50,947 - ERROR - ffmpeg version 7.1.1-full_build-www.gyan.dev Copyright (c) 2000-2025 the FFmpeg developers
2025-07-22 16:29:50,985 - ERROR - built with gcc 14.2.0 (Rev1, Built by MSYS2 project)
2025-07-22 16:29:50,994 - ERROR - configuration: --enable-gpl --enable-version3 --enable-static --disable-w32threads --disable-autodetect --enable-fontconfig --enable-iconv --enable-gnutls --enable-lcms2 --enable-libxml2 --enable-gmp --enable-bzlib --enable-lzma --enable-libsnappy --enable-zlib --enable-librist --enable-libsrt --enable-libssh --enable-libzmq --enable-avisynth --enable-libbluray --enable-libcaca --enable-libdvdnav --enable-libdvdread --enable-sdl2 --enable-libaribb24 --enable-libaribcaption --enable-libdav1d --enable-libdavs2 --enable-libopenjpeg --enable-libquirc --enable-libuavs3d --enable-libxevd --enable-libzvbi --enable-libqrencode --enable-librav1e --enable-libsvtav1 --enable-libvvenc --enable-libwebp --enable-libx264 --enable-libx265 --enable-libxavs2 --enable-libxeve --enable-libxvid --enable-libaom --enable-libjxl --enable-libvpx --enable-mediafoundation --enable-libass --enable-frei0r --enable-libfreetype --enable-libfribidi --enable-libharfbuzz --enable-liblensfun --enable-libvidstab --enable-libvmaf --enable-libzimg --enable-amf --enable-cuda-llvm --enable-cuvid --enable-dxva2 --enable-d3d11va --enable-d3d12va --enable-ffnvcodec --enable-libvpl --enable-nvdec --enable-nvenc --enable-vaapi --enable-libshaderc --enable-vulkan --enable-libplacebo --enable-opencl --enable-libcdio --enable-libgme --enable-libmodplug --enable-libopenmpt --enable-libopencore-amrwb --enable-libmp3lame --enable-libshine --enable-libtheora --enable-libtwolame --enable-libvo-amrwbenc --enable-libcodec2 --enable-libilbc --enable-libgsm --enable-liblc3 --enable-libopencore-amrnb --enable-libopus --enable-libspeex --enable-libvorbis --enable-ladspa --enable-libbs2b --enable-libflite --enable-libmysofa --enable-librubberband --enable-libsoxr --enable-chromaprint
2025-07-22 16:29:51,096 - ERROR - libavutil      59. 39.100 / 59. 39.100
2025-07-22 16:29:51,104 - ERROR - libavcodec     61. 19.101 / 61. 19.101
2025-07-22 16:29:51,180 - ERROR - libavformat    61.  7.100 / 61.  7.100
2025-07-22 16:29:51,190 - ERROR - libavdevice    61.  3.100 / 61.  3.100
2025-07-22 16:29:51,194 - ERROR - libavfilter    10.  4.100 / 10.  4.100
2025-07-22 16:29:51,198 - ERROR - libswscale      8.  3.100 /  8.  3.100
2025-07-22 16:29:51,206 - ERROR - libswresample   5.  3.100 /  5.  3.100
2025-07-22 16:29:51,223 - ERROR - libpostproc    58.  3.100 / 58.  3.100
2025-07-22 16:29:51,249 - ERROR - [matroska,webm @ 000001d401767440] Could not find codec parameters for stream 3 (Subtitle: hdmv_pgs_subtitle (pgssub)): unspecified size
2025-07-22 16:29:51,250 - ERROR - Consider increasing the value for the 'analyzeduration' (0) and 'probesize' (5000000) options
2025-07-22 16:29:51,250 - ERROR - Input #0, matroska,webm, from 'H:\staging\ba2ed18e-baa8-4366-a179-1bc443b95ae5\Oppenheimer-SEG_MainFeature_t02.mkv':
2025-07-22 16:29:51,252 - ERROR - Metadata:
2025-07-22 16:29:51,266 - ERROR - title           : Oppenheimer
2025-07-22 16:29:51,275 - ERROR - encoder         : libmakemkv v1.18.1 (1.3.10/1.5.2) win(x64-release)
2025-07-22 16:29:51,300 - ERROR - creation_time   : 2025-06-01T05:29:31.000000Z
2025-07-22 16:29:51,342 - ERROR - Duration: 03:00:22.19, start: 0.000000, bitrate: 66548 kb/s
2025-07-22 16:29:51,358 - ERROR - Chapters:
2025-07-22 16:29:51,361 - ERROR - Chapter #0:0: start 0.000000, end 443.526417
2025-07-22 16:29:51,406 - ERROR - Metadata:
2025-07-22 16:29:51,425 - ERROR - title           : Chapter 01
2025-07-22 16:29:51,428 - ERROR - Chapter #0:1: start 443.526417, end 996.370375
2025-07-22 16:29:51,520 - ERROR - Metadata:
2025-07-22 16:29:51,524 - ERROR - title           : Chapter 02
2025-07-22 16:29:51,532 - ERROR - Chapter #0:2: start 996.370375, end 1643.975667
2025-07-22 16:29:51,634 - ERROR - Metadata:
2025-07-22 16:29:51,636 - ERROR - title           : Chapter 03
2025-07-22 16:29:51,639 - ERROR - Chapter #0:3: start 1643.975667, end 2161.534375
2025-07-22 16:29:51,643 - ERROR - Metadata:
2025-07-22 16:29:51,658 - ERROR - title           : Chapter 04
2025-07-22 16:29:51,681 - ERROR - Chapter #0:4: start 2161.534375, end 2571.569000
2025-07-22 16:29:51,683 - ERROR - Metadata:
2025-07-22 16:29:51,692 - ERROR - title           : Chapter 05
2025-07-22 16:29:51,695 - ERROR - Chapter #0:5: start 2571.569000, end 3151.606792
2025-07-22 16:29:51,702 - ERROR - Metadata:
2025-07-22 16:29:51,722 - ERROR - title           : Chapter 06
2025-07-22 16:29:51,745 - ERROR - Chapter #0:6: start 3151.606792, end 3596.217625
2025-07-22 16:29:51,748 - ERROR - Metadata:
2025-07-22 16:29:51,749 - ERROR - title           : Chapter 07
2025-07-22 16:29:51,752 - ERROR - Chapter #0:7: start 3596.217625, end 4253.749500
2025-07-22 16:29:51,758 - ERROR - Metadata:
2025-07-22 16:29:51,771 - ERROR - title           : Chapter 08
2025-07-22 16:29:51,802 - ERROR - Chapter #0:8: start 4253.749500, end 4677.839833
2025-07-22 16:29:51,811 - ERROR - Metadata:
2025-07-22 16:29:51,812 - ERROR - title           : Chapter 09
2025-07-22 16:29:51,814 - ERROR - Chapter #0:9: start 4677.839833, end 5054.340958
2025-07-22 16:29:51,819 - ERROR - Metadata:
2025-07-22 16:29:51,843 - ERROR - title           : Chapter 10
2025-07-22 16:29:51,864 - ERROR - Chapter #0:10: start 5054.340958, end 5766.927833
2025-07-22 16:29:51,865 - ERROR - Metadata:
2025-07-22 16:29:51,886 - ERROR - title           : Chapter 11
2025-07-22 16:29:51,901 - ERROR - Chapter #0:11: start 5766.927833, end 6186.555375
2025-07-22 16:29:51,928 - ERROR - Metadata:
2025-07-22 16:29:51,931 - ERROR - title           : Chapter 12
2025-07-22 16:29:51,933 - ERROR - Chapter #0:12: start 6186.555375, end 6679.297625
2025-07-22 16:29:51,941 - ERROR - Metadata:
2025-07-22 16:29:51,960 - ERROR - title           : Chapter 13
2025-07-22 16:29:51,983 - ERROR - Chapter #0:13: start 6679.297625, end 7218.169292
2025-07-22 16:29:51,986 - ERROR - Metadata:
2025-07-22 16:29:51,988 - ERROR - title           : Chapter 14
2025-07-22 16:29:51,991 - ERROR - Chapter #0:14: start 7218.169292, end 7742.192792
2025-07-22 16:29:52,003 - ERROR - Metadata:
2025-07-22 16:29:52,010 - ERROR - title           : Chapter 15
2025-07-22 16:29:52,018 - ERROR - Chapter #0:15: start 7742.192792, end 8228.303417
2025-07-22 16:29:52,028 - ERROR - Metadata:
2025-07-22 16:29:52,029 - ERROR - title           : Chapter 16
2025-07-22 16:29:52,030 - ERROR - Chapter #0:16: start 8228.303417, end 9124.824042
2025-07-22 16:29:52,030 - ERROR - Metadata:
2025-07-22 16:29:52,031 - ERROR - title           : Chapter 17
2025-07-22 16:29:52,032 - ERROR - Chapter #0:17: start 9124.824042, end 10060.592208
2025-07-22 16:29:52,032 - ERROR - Metadata:
2025-07-22 16:29:52,035 - ERROR - title           : Chapter 18
2025-07-22 16:29:52,040 - ERROR - Chapter #0:18: start 10060.592208, end 10452.191750
2025-07-22 16:29:52,047 - ERROR - Metadata:
2025-07-22 16:29:52,048 - ERROR - title           : Chapter 19
2025-07-22 16:29:52,049 - ERROR - Chapter #0:19: start 10452.191750, end 10822.186667
2025-07-22 16:29:52,055 - ERROR - Metadata:
2025-07-22 16:29:52,070 - ERROR - title           : Chapter 20
2025-07-22 16:29:52,080 - ERROR - Stream #0:0(eng): Video: hevc (Main 10), yuv420p10le(tv, bt2020nc/bt2020/smpte2084), 3840x2160 [SAR 1:1 DAR 16:9], 23.98 fps, 23.98 tbr, 1k tbn
2025-07-22 16:29:52,095 - ERROR - Metadata:
2025-07-22 16:29:52,097 - ERROR - BPS-eng         : 61409266
2025-07-22 16:29:52,100 - ERROR - DURATION-eng    : 03:00:22.186375000
2025-07-22 16:29:52,103 - ERROR - NUMBER_OF_FRAMES-eng: 259473
2025-07-22 16:29:52,110 - ERROR - NUMBER_OF_BYTES-eng: 83072812821
2025-07-22 16:29:52,117 - ERROR - SOURCE_ID-eng   : 001011
2025-07-22 16:29:52,124 - ERROR - _STATISTICS_WRITING_APP-eng: MakeMKV v1.18.1 win(x64-release)
2025-07-22 16:29:52,141 - ERROR - _STATISTICS_WRITING_DATE_UTC-eng: 2025-06-01 05:29:31
2025-07-22 16:29:52,162 - ERROR - _STATISTICS_TAGS-eng: BPS DURATION NUMBER_OF_FRAMES NUMBER_OF_BYTES SOURCE_ID
2025-07-22 16:29:52,164 - ERROR - Stream #0:1(eng): Audio: dts (dca) (DTS-HD MA), 48000 Hz, 5.1(side), s32p (24 bit) (default)
2025-07-22 16:29:52,167 - ERROR - Metadata:
2025-07-22 16:29:52,172 - ERROR - title           : Surround 5.1
2025-07-22 16:29:52,194 - ERROR - BPS-eng         : 3566816
2025-07-22 16:29:52,215 - ERROR - DURATION-eng    : 03:00:22.186666666
2025-07-22 16:29:52,219 - ERROR - NUMBER_OF_FRAMES-eng: 1014580
2025-07-22 16:29:52,223 - ERROR - NUMBER_OF_BYTES-eng: 4825093960
2025-07-22 16:29:52,232 - ERROR - SOURCE_ID-eng   : 001100
2025-07-22 16:29:52,240 - ERROR - _STATISTICS_WRITING_APP-eng: MakeMKV v1.18.1 win(x64-release)
2025-07-22 16:29:52,248 - ERROR - _STATISTICS_WRITING_DATE_UTC-eng: 2025-06-01 05:29:31
2025-07-22 16:29:52,261 - ERROR - _STATISTICS_TAGS-eng: BPS DURATION NUMBER_OF_FRAMES NUMBER_OF_BYTES SOURCE_ID
2025-07-22 16:29:52,275 - ERROR - Stream #0:2(eng): Audio: dts (dca) (DTS), 48000 Hz, 5.1(side), fltp, 1536 kb/s
2025-07-22 16:29:52,295 - ERROR - Metadata:
2025-07-22 16:29:52,296 - ERROR - title           : Surround 5.1
2025-07-22 16:29:52,297 - ERROR - BPS-eng         : 1509000
2025-07-22 16:29:52,297 - ERROR - DURATION-eng    : 03:00:22.186666666
2025-07-22 16:29:52,298 - ERROR - NUMBER_OF_FRAMES-eng: 1014580
2025-07-22 16:29:52,304 - ERROR - NUMBER_OF_BYTES-eng: 2041334960
2025-07-22 16:29:52,320 - ERROR - SOURCE_ID-eng   : 001100
2025-07-22 16:29:52,328 - ERROR - _STATISTICS_WRITING_APP-eng: MakeMKV v1.18.1 win(x64-release)
2025-07-22 16:29:52,344 - ERROR - _STATISTICS_WRITING_DATE_UTC-eng: 2025-06-01 05:29:31
2025-07-22 16:29:52,357 - ERROR - _STATISTICS_TAGS-eng: BPS DURATION NUMBER_OF_FRAMES NUMBER_OF_BYTES SOURCE_ID
2025-07-22 16:29:52,375 - ERROR - Stream #0:3(eng): Subtitle: hdmv_pgs_subtitle (pgssub)
2025-07-22 16:29:52,376 - ERROR - Metadata:
2025-07-22 16:29:52,377 - ERROR - BPS-eng         : 61707
2025-07-22 16:29:52,379 - ERROR - DURATION-eng    : 02:53:12.486270833
2025-07-22 16:29:52,381 - ERROR - NUMBER_OF_FRAMES-eng: 6172
2025-07-22 16:29:52,403 - ERROR - NUMBER_OF_BYTES-eng: 80161327
2025-07-22 16:29:52,432 - ERROR - SOURCE_ID-eng   : 0012A0
2025-07-22 16:29:52,434 - ERROR - _STATISTICS_WRITING_APP-eng: MakeMKV v1.18.1 win(x64-release)
2025-07-22 16:29:52,437 - ERROR - _STATISTICS_WRITING_DATE_UTC-eng: 2025-06-01 05:29:31
2025-07-22 16:29:52,442 - ERROR - _STATISTICS_TAGS-eng: BPS DURATION NUMBER_OF_FRAMES NUMBER_OF_BYTES SOURCE_ID
2025-07-22 16:29:52,457 - ERROR - Stream mapping:
2025-07-22 16:29:52,480 - ERROR - Stream #0:0 -> #0:0 (hevc (native) -> hevc (libx265))
2025-07-22 16:29:52,481 - ERROR - Stream #0:1 -> #0:1 (copy)
2025-07-22 16:29:52,482 - ERROR - Stream #0:2 -> #0:2 (copy)
2025-07-22 16:29:52,482 - ERROR - Stream #0:3 -> #0:3 (copy)
2025-07-22 16:29:52,486 - ERROR - Press [q] to stop, [?] for help
2025-07-22 16:29:52,490 - ERROR - x265 [info]: HEVC encoder version 4.1+110-0e0eee580
2025-07-22 16:29:52,495 - ERROR - x265 [info]: build info [Windows][GCC 14.2.0][64 bit] 10bit
2025-07-22 16:29:52,503 - ERROR - x265 [info]: using cpu capabilities: MMX2 SSE2Fast LZCNT SSSE3 SSE4.2 AVX FMA3 BMI2 AVX2
2025-07-22 16:29:52,516 - ERROR - x265 [warning]: Turning on repeat-headers for HDR compatibility
2025-07-22 16:29:52,546 - ERROR - x265 [info]: Main 10 profile, Level-5 (Main tier)
2025-07-22 16:29:52,549 - ERROR - x265 [info]: Thread pool created using 10 threads
2025-07-22 16:29:52,550 - ERROR - x265 [info]: Slices                              : 1
2025-07-22 16:29:52,551 - ERROR - x265 [info]: frame threads / pool features       : 10 / wpp(34 rows)
2025-07-22 16:29:52,553 - ERROR - x265 [info]: Coding QT: max CU size, min CU size : 64 / 8
2025-07-22 16:29:52,571 - ERROR - x265 [info]: Residual QT: max TU size, max depth : 32 / 1 inter / 1 intra
2025-07-22 16:29:52,581 - ERROR - x265 [info]: ME / range / subpel / merge         : hex / 57 / 2 / 3
2025-07-22 16:29:52,593 - ERROR - x265 [info]: Keyframe min / max / scenecut / bias  : 23 / 250 / 40 / 5.00
2025-07-22 16:29:52,619 - ERROR - x265 [info]: Lookahead / bframes / badapt        : 20 / 4 / 2
2025-07-22 16:29:52,629 - ERROR - x265 [info]: b-pyramid / weightp / weightb       : 1 / 1 / 0
2025-07-22 16:29:52,631 - ERROR - x265 [info]: References / ref-limit  cu / depth  : 3 / off / on
2025-07-22 16:29:52,673 - ERROR - x265 [info]: AQ: mode / str / qg-size / cu-tree  : 2 / 1.0 / 32 / 1
2025-07-22 16:29:52,680 - ERROR - x265 [info]: Rate Control / qCompress            : CRF-18.0 / 0.60
2025-07-22 16:29:52,687 - ERROR - x265 [info]: tools: rd=3 psy-rd=2.00 early-skip rskip mode=1 signhide tmvp
2025-07-22 16:29:52,723 - ERROR - x265 [info]: tools: b-intra strong-intra-smoothing lslices=8 deblock
2025-07-22 16:29:52,740 - ERROR - x265 [info]: tools: dhdr10-info
2025-07-22 16:29:52,766 - ERROR - Output #0, matroska, to 'H:\staging\ba2ed18e-baa8-4366-a179-1bc443b95ae5\Oppenheimer-SEG_MainFeature_t02_x265.mkv':
2025-07-22 16:29:52,770 - ERROR - Metadata:
2025-07-22 16:29:52,771 - ERROR - title           : Oppenheimer
2025-07-22 16:29:52,773 - ERROR - encoder         : Lavf61.7.100
2025-07-22 16:29:52,777 - ERROR - Chapters:
2025-07-22 16:29:52,783 - ERROR - Chapter #0:0: start 0.000000, end 443.526417
2025-07-22 16:29:52,793 - ERROR - Metadata:
2025-07-22 16:29:52,823 - ERROR - title           : Chapter 01
2025-07-22 16:29:52,828 - ERROR - Chapter #0:1: start 443.526417, end 996.370375
2025-07-22 16:29:52,845 - ERROR - Metadata:
2025-07-22 16:29:52,853 - ERROR - title           : Chapter 02
2025-07-22 16:29:52,861 - ERROR - Chapter #0:2: start 996.370375, end 1643.975667
2025-07-22 16:29:52,872 - ERROR - Metadata:
2025-07-22 16:29:52,888 - ERROR - title           : Chapter 03
2025-07-22 16:29:52,906 - ERROR - Chapter #0:3: start 1643.975667, end 2161.534375
2025-07-22 16:29:52,908 - ERROR - Metadata:
2025-07-22 16:29:52,910 - ERROR - title           : Chapter 04
2025-07-22 16:29:52,919 - ERROR - Chapter #0:4: start 2161.534375, end 2571.569000
2025-07-22 16:29:52,928 - ERROR - Metadata:
2025-07-22 16:29:52,961 - ERROR - title           : Chapter 05
2025-07-22 16:29:52,991 - ERROR - Chapter #0:5: start 2571.569000, end 3151.606792
2025-07-22 16:29:52,998 - ERROR - Metadata:
2025-07-22 16:29:53,001 - ERROR - title           : Chapter 06
2025-07-22 16:29:53,003 - ERROR - Chapter #0:6: start 3151.606792, end 3596.217625
2025-07-22 16:29:53,017 - ERROR - Metadata:
2025-07-22 16:29:53,037 - ERROR - title           : Chapter 07
2025-07-22 16:29:53,051 - ERROR - Chapter #0:7: start 3596.217625, end 4253.749500
2025-07-22 16:29:53,052 - ERROR - Metadata:
2025-07-22 16:29:53,053 - ERROR - title           : Chapter 08
2025-07-22 16:29:53,059 - ERROR - Chapter #0:8: start 4253.749500, end 4677.839833
2025-07-22 16:29:53,080 - ERROR - Metadata:
2025-07-22 16:29:53,101 - ERROR - title           : Chapter 09
2025-07-22 16:29:53,103 - ERROR - Chapter #0:9: start 4677.839833, end 5054.340958
2025-07-22 16:29:53,106 - ERROR - Metadata:
2025-07-22 16:29:53,110 - ERROR - title           : Chapter 10
2025-07-22 16:29:53,119 - ERROR - Chapter #0:10: start 5054.340958, end 5766.927833
2025-07-22 16:29:53,127 - ERROR - Metadata:
2025-07-22 16:29:53,145 - ERROR - title           : Chapter 11
2025-07-22 16:29:53,161 - ERROR - Chapter #0:11: start 5766.927833, end 6186.555375
2025-07-22 16:29:53,163 - ERROR - Metadata:
2025-07-22 16:29:53,164 - ERROR - title           : Chapter 12
2025-07-22 16:29:53,165 - ERROR - Chapter #0:12: start 6186.555375, end 6679.297625
2025-07-22 16:29:53,169 - ERROR - Metadata:
2025-07-22 16:29:53,189 - ERROR - title           : Chapter 13
2025-07-22 16:29:53,198 - ERROR - Chapter #0:13: start 6679.297625, end 7218.169292
2025-07-22 16:29:53,225 - ERROR - Metadata:
2025-07-22 16:29:53,244 - ERROR - title           : Chapter 14
2025-07-22 16:29:53,245 - ERROR - Chapter #0:14: start 7218.169292, end 7742.192792
2025-07-22 16:29:53,257 - ERROR - Metadata:
2025-07-22 16:29:53,268 - ERROR - title           : Chapter 15
2025-07-22 16:29:53,285 - ERROR - Chapter #0:15: start 7742.192792, end 8228.303417
2025-07-22 16:29:53,299 - ERROR - Metadata:
2025-07-22 16:29:53,322 - ERROR - title           : Chapter 16
2025-07-22 16:29:53,324 - ERROR - Chapter #0:16: start 8228.303417, end 9124.824042
2025-07-22 16:29:53,338 - ERROR - Metadata:
2025-07-22 16:29:53,348 - ERROR - title           : Chapter 17
2025-07-22 16:29:53,354 - ERROR - Chapter #0:17: start 9124.824042, end 10060.592208
2025-07-22 16:29:53,384 - ERROR - Metadata:
2025-07-22 16:29:53,403 - ERROR - title           : Chapter 18
2025-07-22 16:29:53,419 - ERROR - Chapter #0:18: start 10060.592208, end 10452.191750
2025-07-22 16:29:53,420 - ERROR - Metadata:
2025-07-22 16:29:53,421 - ERROR - title           : Chapter 19
2025-07-22 16:29:53,426 - ERROR - Chapter #0:19: start 10452.191750, end 10822.186667
2025-07-22 16:29:53,434 - ERROR - Metadata:
2025-07-22 16:29:53,457 - ERROR - title           : Chapter 20
2025-07-22 16:29:53,474 - ERROR - Stream #0:0(eng): Video: hevc, yuv420p10le(tv, bt2020nc/bt2020/smpte2084, progressive), 3840x2160 [SAR 1:1 DAR 16:9], q=2-31, 23.98 fps, 1k tbn
2025-07-22 16:29:53,475 - ERROR - Metadata:
2025-07-22 16:29:53,499 - ERROR - BPS-eng         : 61409266
2025-07-22 16:29:53,514 - ERROR - DURATION-eng    : 03:00:22.186375000
2025-07-22 16:29:53,524 - ERROR - NUMBER_OF_FRAMES-eng: 259473
2025-07-22 16:29:53,536 - ERROR - NUMBER_OF_BYTES-eng: 83072812821
2025-07-22 16:29:53,537 - ERROR - SOURCE_ID-eng   : 001011
2025-07-22 16:29:53,538 - ERROR - _STATISTICS_WRITING_APP-eng: MakeMKV v1.18.1 win(x64-release)
2025-07-22 16:29:53,538 - ERROR - _STATISTICS_WRITING_DATE_UTC-eng: 2025-06-01 05:29:31
2025-07-22 16:29:53,538 - ERROR - _STATISTICS_TAGS-eng: BPS DURATION NUMBER_OF_FRAMES NUMBER_OF_BYTES SOURCE_ID
2025-07-22 16:29:53,539 - ERROR - encoder         : Lavc61.19.101 libx265
2025-07-22 16:29:53,539 - ERROR - Side data:
2025-07-22 16:29:53,540 - ERROR - Mastering Display Metadata, has_primaries:1 has_luminance:1 r(0.6800,0.3200) g(0.2650,0.6900) b(0.1500 0.0600) wp(0.3127, 0.3290) min_luminance=0.005000, max_luminance=1000.000000
2025-07-22 16:29:53,540 - ERROR - Content Light Level Metadata, MaxCLL=186, MaxFALL=147
2025-07-22 16:29:53,541 - ERROR - cpb: bitrate max/min/avg: 0/0/0 buffer size: 0 vbv_delay: N/A
2025-07-22 16:29:53,541 - ERROR - Stream #0:1(eng): Audio: dts (DTS-HD MA) ([1] [0][0] / 0x2001), 48000 Hz, 5.1(side), s32p (24 bit) (default)
2025-07-22 16:29:53,542 - ERROR - Metadata:
2025-07-22 16:29:53,542 - ERROR - title           : Surround 5.1
2025-07-22 16:29:53,543 - ERROR - BPS-eng         : 3566816
2025-07-22 16:29:53,543 - ERROR - DURATION-eng    : 03:00:22.186666666
2025-07-22 16:29:53,544 - ERROR - NUMBER_OF_FRAMES-eng: 1014580
2025-07-22 16:29:53,544 - ERROR - NUMBER_OF_BYTES-eng: 4825093960
2025-07-22 16:29:53,545 - ERROR - SOURCE_ID-eng   : 001100
2025-07-22 16:29:53,545 - ERROR - _STATISTICS_WRITING_APP-eng: MakeMKV v1.18.1 win(x64-release)
2025-07-22 16:29:53,546 - ERROR - _STATISTICS_WRITING_DATE_UTC-eng: 2025-06-01 05:29:31
2025-07-22 16:29:53,546 - ERROR - _STATISTICS_TAGS-eng: BPS DURATION NUMBER_OF_FRAMES NUMBER_OF_BYTES SOURCE_ID
2025-07-22 16:29:53,547 - ERROR - Stream #0:2(eng): Audio: dts (DTS) ([1] [0][0] / 0x2001), 48000 Hz, 5.1(side), fltp, 1536 kb/s
2025-07-22 16:29:53,547 - ERROR - Metadata:
2025-07-22 16:29:53,550 - ERROR - title           : Surround 5.1
2025-07-22 16:29:53,558 - ERROR - BPS-eng         : 1509000
2025-07-22 16:29:53,559 - ERROR - DURATION-eng    : 03:00:22.186666666
2025-07-22 16:29:53,566 - ERROR - NUMBER_OF_FRAMES-eng: 1014580
2025-07-22 16:29:53,582 - ERROR - NUMBER_OF_BYTES-eng: 2041334960
2025-07-22 16:29:53,598 - ERROR - SOURCE_ID-eng   : 001100
2025-07-22 16:29:53,607 - ERROR - _STATISTICS_WRITING_APP-eng: MakeMKV v1.18.1 win(x64-release)
2025-07-22 16:29:53,608 - ERROR - _STATISTICS_WRITING_DATE_UTC-eng: 2025-06-01 05:29:31
2025-07-22 16:29:53,621 - ERROR - _STATISTICS_TAGS-eng: BPS DURATION NUMBER_OF_FRAMES NUMBER_OF_BYTES SOURCE_ID
2025-07-22 16:29:53,629 - ERROR - Stream #0:3(eng): Subtitle: hdmv_pgs_subtitle ([255][255][255][255] / 0xFFFFFFFF)
2025-07-22 16:29:53,637 - ERROR - Metadata:
2025-07-22 16:29:53,651 - ERROR - BPS-eng         : 61707
2025-07-22 16:29:53,671 - ERROR - DURATION-eng    : 02:53:12.486270833
2025-07-22 16:29:53,678 - ERROR - NUMBER_OF_FRAMES-eng: 6172
2025-07-22 16:29:53,679 - ERROR - NUMBER_OF_BYTES-eng: 80161327
2025-07-22 16:29:53,679 - ERROR - SOURCE_ID-eng   : 0012A0
2025-07-22 16:29:53,680 - ERROR - _STATISTICS_WRITING_APP-eng: MakeMKV v1.18.1 win(x64-release)
2025-07-22 16:29:53,686 - ERROR - _STATISTICS_WRITING_DATE_UTC-eng: 2025-06-01 05:29:31
2025-07-22 16:29:53,705 - ERROR - _STATISTICS_TAGS-eng: BPS DURATION NUMBER_OF_FRAMES NUMBER_OF_BYTES SOURCE_ID
2025-07-22 23:41:12,725 - ERROR - [out#0/matroska @ 000001d4017fb200] video:10406483KiB audio:6705497KiB subtitle:78283KiB other streams:0KiB global headers:3KiB muxing overhead: 0.094283%
2025-07-22 23:41:12,727 - ERROR - x265 [info]: frame I:   2402, Avg QP:17.18  kb/s: 36720.84
2025-07-22 23:41:12,728 - ERROR - x265 [info]: frame P:  55846, Avg QP:19.04  kb/s: 16929.51
2025-07-22 23:41:12,729 - ERROR - x265 [info]: frame B: 201225, Avg QP:22.48  kb/s: 5014.33
2025-07-22 23:41:12,730 - ERROR - x265 [info]: Weighted P-Frames: Y:2.1% UV:1.4%
2025-07-22 23:41:12,730 - ERROR - encoded 259473 frames in 25881.49s (10.03 fps), 7872.33 kb/s, Avg QP:21.69
2025-07-22 23:41:13,112 - INFO - Successfully completed: Re-encoding to x265
2025-07-22 23:41:13,174 - INFO - Starting step: move_final - Moving final file to destination
2025-07-22 23:41:13,182 - INFO - Moving final file from H:\staging\ba2ed18e-baa8-4366-a179-1bc443b95ae5\Oppenheimer-SEG_MainFeature_t02_x265.mkv to Z:\landing_point\Video\Oppenheimer\Oppenheimer-SEG_MainFeature_t02_x265.mkv
2025-07-22 23:43:47,139 - INFO - Move successful.
2025-07-22 23:43:47,201 - INFO - === transcode() completed successfully for job ba2ed18e-baa8-4366-a179-1bc443b95ae5 ===
2025-07-22 23:43:47,288 - INFO - Cleaning up job staging directory: H:\staging\ba2ed18e-baa8-4366-a179-1bc443b95ae5
